<?xml version="1.0" encoding="utf-8"?>
<!-- Generator: Adobe Illustrator 25.4.1, SVG Export Plug-In . SVG Version: 6.00 Build 0)  -->
<svg version="1.1" id="Layer_1" xmlns="http://www.w3.org/2000/svg" xmlns:xlink="http://www.w3.org/1999/xlink" x="0px" y="0px"
	 viewBox="0 0 2528.7 2528.7" style="enable-background:new 0 0 2528.7 2528.7;" xml:space="preserve">
<style type="text/css">
	.st0{fill:#0CA0A0;}
	.st1{fill:#0CA0A0;}
	.st2{fill:none;stroke:#0CA0A0;stroke-width:90;stroke-miterlimit:10;}
</style>
<path class="st0" d="M1003.4,498.4c122-9.9,234.3,80.2,264,188c13.5,59.7,9.2,87.6,21,8c77.2-267.6,443.5-259.4,499.5,26.2
	c24.5,161.6-85,303.8-179.5,411.8c-45.7,55.2-94.3,117.1-144.8,158.9c-42.7,40.3-86.1,87.2-132.2,121.1c-1.3,7-10.4,12.8-16,15
	c-4.1,12.7-17.9,15.6-24.6,25.2c-15.9,18.6-36.8-6.2-48.4-21.2c-54.5-42-127.2-117.6-184-179c-41.8-32.5-80.5-83.3-114-124.1
	c-55.6-65.7-101.4-128.2-138-203.8C706.7,746,803.5,519.3,1003.4,498.4z"/>
<path class="st0" d="M2159.2,1116.7c-2.6,161.6-58.2,463.6-179.8,582.7c-69.6,91.2-152.2,153.9-240,214
	c-43.7,33.9-88.8,62.6-134.4,89c-26.5,17.9-55.1,39.1-81.6,47c-138.6,88.6-174.7-132.1-116-225c35.2-93,108.3-168.1,185-227
	c48.4-39.4,94.3-75.4,147-108c18.8-11.3,118.4-101.1,131-65c45.7,83.3-74.9,140.5-118,187c-38.2,40.9-83.9,152.4,8,74.1
	C2110.5,1428.1,2035.2,1063.4,2159.2,1116.7z"/>
<path class="st1" d="M432.4,1115.4c69.6,41.2,64.7,159.8,101,232c61.3,129.7,138.1,247.6,262,334c85.4,80.1,57.8-10.7,18.4-62.2
	c-46.5-55-169-104.3-126.4-196.8c23.5-18.2,51.8,11.8,68,24c29.9,19.8,63.7,36.4,88,59c74.5,50.9,168,117.2,230,191.4
	c63.6,80.5,117.7,170.3,103,277.6c-18.6,139.2-112.6,91.1-198,48c-46.2-36.9-109.9-73-167-112c-28.9-23.2-63.3-50.2-96-72
	c-66.3-63.7-138.4-127.9-188-206c-63.9-97.4-82.7-230.6-112-346C418.6,1248.8,356.1,1085.2,432.4,1115.4z"/>
<circle class="st2" cx="1269" cy="1277" r="1197.7"/>
</svg>
